<svg width="32" height="32" viewBox="0 0 32 32" fill="none" xmlns="http://www.w3.org/2000/svg">
<circle cx="16" cy="16" r="16" fill="#383838"/>
<path fill-rule="evenodd" clip-rule="evenodd" d="M6.15237 22.6135C5.91576 22.6135 5.7201 22.5303 5.5654 22.364C5.4107 22.1976 5.33334 21.9872 5.33334 21.7328C5.33334 21.4784 5.4107 21.268 5.5654 21.1016C5.7201 20.9352 5.91576 20.8521 6.15237 20.8521C6.97139 20.8521 7.62206 20.6417 8.10437 20.2209C8.58668 19.8001 8.97799 19.2325 9.2783 18.5182C9.57861 17.8038 9.85617 17.0063 10.111 16.1256C10.4386 15.0296 10.7753 14.0314 11.1211 13.1311C11.4669 12.2308 11.931 11.5018 12.5134 10.944C13.0959 10.3862 13.9058 10.0878 14.9432 10.0486C15.016 10.0291 15.0888 10.0193 15.1616 10.0193C16.1808 10.0193 17.0408 10.2248 17.7415 10.6358C18.4423 11.0468 19.0019 11.6143 19.4205 12.3385C19.8937 11.4578 20.4989 10.8266 21.236 10.445C21.9731 10.0633 22.7376 9.92631 23.5293 10.034C24.321 10.1416 25.0445 10.4694 25.6997 11.0174C25.8999 11.1936 26 11.4284 26 11.722C26 11.9764 25.9181 12.1917 25.7543 12.3678C25.5905 12.544 25.3903 12.6321 25.1537 12.6321C24.9353 12.6321 24.7533 12.5636 24.6077 12.4266C24.1709 12.0547 23.7022 11.8492 23.2017 11.8101C22.7012 11.7709 22.2234 11.9128 21.7684 12.2357C21.3134 12.5587 20.9448 13.0822 20.6627 13.8063C20.3806 14.5305 20.2396 15.4699 20.2396 16.6246C20.2396 17.9359 20.6081 18.9683 21.3452 19.7218C22.0824 20.4753 23.1789 20.8521 24.635 20.8521C24.8716 20.8521 25.0672 20.9352 25.2219 21.1016C25.3766 21.268 25.454 21.4784 25.454 21.7328C25.454 21.9872 25.3766 22.1976 25.2219 22.364C25.0672 22.5303 24.8716 22.6135 24.635 22.6135C23.4337 22.6135 22.3918 22.3933 21.509 21.953C20.6263 21.5126 19.9301 20.901 19.4205 20.1181C19.0201 20.901 18.5287 21.4832 17.9463 21.8649C17.3639 22.2465 16.7496 22.4863 16.1035 22.5841C15.4574 22.682 14.8431 22.6673 14.2607 22.5401C13.6783 22.4129 13.196 22.2319 12.8137 21.997C12.7045 21.9187 12.609 21.8111 12.5271 21.6741C12.4452 21.5371 12.4042 21.3903 12.4042 21.2337C12.4042 20.9793 12.4861 20.764 12.6499 20.5879C12.8137 20.4117 13.014 20.3236 13.2506 20.3236C13.3962 20.3236 13.5418 20.3726 13.6874 20.4704C13.924 20.6074 14.2334 20.72 14.6156 20.808C14.9978 20.8961 15.4119 20.9059 15.8578 20.8374C16.3037 20.7689 16.7223 20.5732 17.1136 20.2502C17.5049 19.9273 17.828 19.4282 18.0828 18.753C18.3376 18.0778 18.465 17.1726 18.465 16.0375C18.465 14.7262 18.2147 13.6987 17.7142 12.955C17.2137 12.2113 16.4265 11.8198 15.3527 11.7807C15.2981 11.8003 15.2344 11.8101 15.1616 11.8101C14.5246 11.8101 14.0195 11.9813 13.6464 12.3238C13.2733 12.6663 12.9548 13.1947 12.6909 13.9091C12.427 14.6235 12.1312 15.5384 11.8036 16.654C11.6216 17.3194 11.3941 17.9995 11.1211 18.6943C10.8481 19.3891 10.5023 20.035 10.0837 20.6319C9.66506 21.2288 9.13725 21.7083 8.50023 22.0704C7.86321 22.4325 7.08059 22.6135 6.15237 22.6135Z" fill="white" stroke="white" stroke-width="0.944882" stroke-linecap="round"/>
</svg>
